<svg width="200" height="151" viewBox="0 0 200 151" fill="none" xmlns="http://www.w3.org/2000/svg">
<path d="M187.5 42.1665C187.5 43.432 186.891 44.6956 185.671 45.9474C184.451 47.2002 182.637 48.4221 180.276 49.5945C175.555 51.9389 168.707 54.0579 160.221 55.8404C143.254 59.4044 119.802 61.611 93.8889 61.611C67.9754 61.611 44.5232 59.4044 27.5565 55.8404C19.0708 54.0579 12.2222 51.9389 7.50178 49.5945C5.14104 48.4221 3.32687 47.2002 2.10643 45.9474C0.886971 44.6956 0.277747 43.432 0.277747 42.1665C0.277747 40.901 0.886971 39.6375 2.10643 38.3856C3.32687 37.1328 5.14104 35.911 7.50178 34.7385C12.2222 32.3942 19.0708 30.2751 27.5565 28.4927C44.5232 24.9286 67.9754 22.7221 93.8889 22.7221C119.802 22.7221 143.254 24.9286 160.221 28.4927C168.707 30.2751 175.555 32.3942 180.276 34.7385C182.637 35.911 184.451 37.1328 185.671 38.3856C186.891 39.6375 187.5 40.901 187.5 42.1665Z" stroke="black" stroke-width="0.555556"/>
<path d="M187.5 56.0554C187.5 57.3209 186.891 58.5845 185.671 59.8363C184.451 61.0891 182.637 62.311 180.276 63.4834C175.555 65.8278 168.707 67.9468 160.221 69.7293C143.254 73.2933 119.802 75.4999 93.8889 75.4999C67.9754 75.4999 44.5232 73.2933 27.5565 69.7293C19.0708 67.9468 12.2222 65.8278 7.50178 63.4834C5.14104 62.311 3.32687 61.0891 2.10643 59.8363C0.886971 58.5845 0.277747 57.3209 0.277747 56.0554C0.277747 54.7899 0.886971 53.5264 2.10643 52.2745C3.32687 51.0217 5.14104 49.7999 7.50178 48.6274C12.2222 46.2831 19.0708 44.164 27.5565 42.3815C44.5232 38.8175 67.9754 36.611 93.8889 36.611C119.802 36.611 143.254 38.8175 160.221 42.3815C168.707 44.164 175.555 46.2831 180.276 48.6274C182.637 49.7999 184.451 51.0217 185.671 52.2745C186.891 53.5264 187.5 54.7899 187.5 56.0554Z" stroke="black" stroke-width="0.555556"/>
<path d="M187.5 69.9443C187.5 71.2098 186.891 72.4734 185.671 73.7252C184.451 74.978 182.637 76.1999 180.276 77.3723C175.555 79.7167 168.707 81.8357 160.221 83.6182C143.254 87.1822 119.802 89.3888 93.8889 89.3888C67.9754 89.3888 44.5232 87.1822 27.5565 83.6182C19.0708 81.8357 12.2222 79.7167 7.50178 77.3723C5.14104 76.1999 3.32687 74.978 2.10643 73.7252C0.886971 72.4734 0.277747 71.2098 0.277747 69.9443C0.277747 68.6788 0.886971 67.4152 2.10643 66.1634C3.32687 64.9106 5.14104 63.6887 7.50178 62.5163C12.2222 60.172 19.0708 58.0529 27.5565 56.2704C44.5232 52.7064 67.9754 50.4999 93.8889 50.4999C119.802 50.4999 143.254 52.7064 160.221 56.2704C168.707 58.0529 175.555 60.172 180.276 62.5163C182.637 63.6887 184.451 64.9106 185.671 66.1634C186.891 67.4152 187.5 68.6788 187.5 69.9443Z" stroke="black" stroke-width="0.555556"/>
<path d="M153.889 30.2221L163.772 55.2556L189.506 47.3742L176.096 70.7091L198.302 85.9147L171.697 89.9794L173.655 116.822L153.889 98.5554L134.123 116.822L136.08 89.9794L109.475 85.9147L131.682 70.7091L118.272 47.3742L144.006 55.2556L153.889 30.2221Z" fill="#D9D9D9"/>
<path d="M62.3302 101.946L75.0746 78.5554L87.9213 101.946L111.26 114.741L87.9213 127.537L75.0746 150.927L62.3302 127.537L38.8889 114.741L62.3302 101.946Z" fill="#B9FF66"/>
<circle cx="84.7222" cy="35.4999" r="34.4444" fill="black" stroke="black" stroke-width="0.555556"/>
</svg>
